<svg xmlns="http://www.w3.org/2000/svg" viewBox="0 0 200 220" width="200" height="220">
  <!-- Body -->
  <path d="M55,65 C55,28 145,28 145,65 L150,185 C150,210 132,220 100,220 C68,220 50,210 50,185 Z" fill="#d4af37" fill-opacity="0.15" stroke="#d4af37" stroke-width="2.5"/>

  <!-- Visor -->
  <rect x="68" y="48" width="64" height="48" rx="12" fill="#d4af37" fill-opacity="0.35" stroke="#d4af37" stroke-width="2.5"/>
  <ellipse cx="86" cy="66" rx="5" ry="9" fill="#d4af37" fill-opacity="0.4"/>
  <ellipse cx="98" cy="60" rx="3" ry="5" fill="#d4af37" fill-opacity="0.2"/>

  <!-- Panel lines -->
  <line x1="58" y1="120" x2="142" y2="120" stroke="#d4af37" stroke-width="0.8" opacity="0.5"/>
  <line x1="56" y1="175" x2="144" y2="175" stroke="#d4af37" stroke-width="0.8" opacity="0.5"/>
  <circle cx="100" cy="132" r="3" fill="#d4af37" opacity="0.7"/>
  <circle cx="60" cy="95" r="2.5" fill="#d4af37" opacity="0.6"/>
  <circle cx="140" cy="95" r="2.5" fill="#d4af37" opacity="0.6"/>

  <!-- Backpack -->
  <path d="M150,105 L170,108 L170,175 L150,178 Z" fill="#d4af37" fill-opacity="0.15" stroke="#d4af37" stroke-width="2"/>

  <!-- Constellation stars -->
  <circle cx="78" cy="142" r="3.5" fill="#d4af37"/>
  <circle cx="120" cy="135" r="3" fill="#d4af37"/>
  <circle cx="135" cy="160" r="3.5" fill="#d4af37"/>
  <circle cx="92" cy="180" r="3" fill="#d4af37"/>
  <circle cx="128" cy="195" r="3.5" fill="#d4af37"/>
  <circle cx="72" cy="198" r="2.8" fill="#d4af37"/>
  <!-- Constellation lines -->
  <line x1="78" y1="142" x2="120" y2="135" stroke="#d4af37" stroke-width="1.2" opacity="0.6"/>
  <line x1="120" y1="135" x2="135" y2="160" stroke="#d4af37" stroke-width="1.2" opacity="0.6"/>
  <line x1="120" y1="135" x2="92" y2="180" stroke="#d4af37" stroke-width="1.2" opacity="0.6"/>
  <line x1="92" y1="180" x2="128" y2="195" stroke="#d4af37" stroke-width="1.2" opacity="0.6"/>
  <line x1="135" y1="160" x2="128" y2="195" stroke="#d4af37" stroke-width="1.2" opacity="0.6"/>
  <line x1="92" y1="180" x2="72" y2="198" stroke="#d4af37" stroke-width="1.2" opacity="0.6"/>

  <!-- Outer constellation -->
  <circle cx="28" cy="60" r="3" fill="#d4af37" opacity="0.55"/>
  <circle cx="178" cy="80" r="2.5" fill="#d4af37" opacity="0.45"/>
  <circle cx="22" cy="180" r="3.5" fill="#d4af37" opacity="0.55"/>
  <circle cx="182" cy="190" r="3" fill="#d4af37" opacity="0.45"/>
  <line x1="28" y1="60" x2="78" y2="142" stroke="#d4af37" stroke-width="1" opacity="0.3"/>
  <line x1="178" y1="80" x2="135" y2="160" stroke="#d4af37" stroke-width="1" opacity="0.3"/>
  <line x1="22" y1="180" x2="72" y2="198" stroke="#d4af37" stroke-width="1" opacity="0.3"/>
  <line x1="182" y1="190" x2="128" y2="195" stroke="#d4af37" stroke-width="1" opacity="0.3"/>
</svg>
